# xmcd
#
# Track frame offsets:
#	150
#	17486
#	33254
#	46034
#	58688
#	74171
#	86233
#	100406
#	115596
#	131127
#	140758
#	151608
#	164130
#	182692
#	194810
#	207806
#	225406
#
# Disc length: 3216
#
# Revision: 2
# Processed by: cddbd v1.5.1PL0 Copyright (c) Steve Scherf et al.
# Submitted via: EasyCDDAExtractor 4.6.9.1
# Normalized: r0:DSETVAR1,TDELIM( - ),TSWAP
#
DISCID=f10c8e11
DTITLE=Various Artist - Best of Country Christmas
DYEAR=2002
DGENRE=Country
TTITLE0=Johnny Cash - White Christmas
TTITLE1=Johnny Paychek - Honky Tonk Christmas
TTITLE2=Roy Clark - Jingle Bells
TTITLE3=Glen Campbell - Winter Wonterland
TTITLE4=John Denver - Blue Christmas
TTITLE5=Glen Campbell - Frosty the Snowman
TTITLE6=Moe Dandy - I'll be home for Christmas
TTITLE7=John Denver - Little Drummer Boy
TTITLE8=Johnny Cash - Silent Night
TTITLE9=Pat Boone - We wish you a merry Christmas
TTITLE10=Geln Campbell - Let it Snow
TTITLE11=Kimmy Sturr - Chruch bells are ringing
TTITLE12=John Dever - The Christmas Song
TTITLE13=Faron Young - Winter Wonderland
TTITLE14=John Denver - Mervelous Toy
TTITLE15=Glen Campbell - Do you hear what I hear
TTITLE16=John Denver - The chilren of Bethlehem
EXTD=
EXTT0=
EXTT1=
EXTT2=
EXTT3=
EXTT4=
EXTT5=
EXTT6=
EXTT7=
EXTT8=
EXTT9=
EXTT10=
EXTT11=
EXTT12=
EXTT13=
EXTT14=
EXTT15=
EXTT16=
PLAYORDER=
